<svg width="24" height="24" viewBox="0 0 24 24" fill="none" xmlns="http://www.w3.org/2000/svg">
<path d="M5.69629 0.520508C5.79906 0.553388 6.04404 0.674176 6.22852 1.25293H6.22949L7.91504 6.53809L5.44434 9.0127L5.22266 9.23535L5.32617 9.53223L5.79785 9.36621L5.32715 9.53223V9.53418C5.32757 9.53536 5.32844 9.5372 5.3291 9.53906C5.33052 9.54302 5.33246 9.54883 5.33496 9.55566C5.34007 9.56966 5.34777 9.58984 5.35742 9.61523C5.37687 9.6664 5.40583 9.74056 5.44434 9.83398C5.52133 10.0208 5.63784 10.287 5.79688 10.6123C6.1148 11.2626 6.60534 12.1517 7.2998 13.1123C8.68703 15.0311 10.9035 17.2582 14.1963 18.4199L14.4932 18.5244L14.7158 18.3018L16.8877 16.125L22.7959 17.5166L22.7998 17.5186C22.8148 17.5241 22.8409 17.5346 22.874 17.5508C22.9412 17.5837 23.0338 17.6381 23.125 17.7227C23.295 17.8803 23.4972 18.171 23.4893 18.7217L23.4883 18.7568L23.4922 18.79L23.4932 18.791V18.792C23.4935 18.7949 23.4936 18.7998 23.4941 18.8066C23.4955 18.8233 23.4978 18.8519 23.499 18.8896C23.5015 18.9653 23.5012 19.0809 23.4893 19.2266C23.4653 19.5189 23.3946 19.9311 23.2051 20.3945C22.8336 21.3029 21.9858 22.4599 20.0156 23.2988C18.3533 23.774 16.222 23.3872 13.9248 22.3154C11.6302 21.2449 9.24058 19.5239 7.12012 17.458C4.99998 15.3924 3.16727 12.9993 1.9707 10.5996C0.779699 8.21098 0.24303 5.86328 0.620117 3.83691C0.631016 3.81165 0.646408 3.77593 0.666992 3.73145C0.713813 3.63026 0.785695 3.48353 0.882812 3.30762C1.07808 2.95398 1.37256 2.48917 1.76758 2.04004C2.56008 1.13905 3.70825 0.350152 5.26758 0.530273L5.38184 0.542969L5.48242 0.507812C5.49024 0.506053 5.50488 0.503817 5.52441 0.501953C5.5683 0.497816 5.6297 0.499236 5.69629 0.520508Z" stroke="white"/>
</svg>
