<svg width="350" height="350" viewBox="0 0 350 350" fill="none" xmlns="http://www.w3.org/2000/svg">
<rect width="350" height="350" rx="3" fill="#E1E2E4"/>
<g clip-path="url(#clip0_1178_5623)">
<path d="M149.692 122L110.445 160.234V122H90V229H110.445V185.238L111.599 184.15L149.798 229H177.152L126.25 170.761L177.483 122H149.692Z" fill="black"/>
<path d="M251.363 172.815C256.428 167.208 259 160.698 259 153.447C258.881 144.445 255.354 136.915 248.525 131.095C241.883 125.261 233.145 122.265 222.538 122.159C213.044 122.252 204.903 125.208 198.34 130.936C191.816 136.835 188.263 144.405 187.812 153.407L187.693 155.767H208.748L209 153.804C209.517 149.708 211.095 146.659 213.84 144.432C216.505 142.204 219.793 141.117 223.85 141.117C228.491 141.197 231.925 142.416 234.325 144.829C236.658 147.255 237.799 150 237.799 153.248C237.799 154.454 237.613 155.78 237.255 157.172C236.698 158.604 235.638 160.208 234.126 161.918L187.799 212.23V229H258.987V210.029H217.181L251.35 172.815H251.363Z" fill="black"/>
</g>
<defs>
<clipPath id="clip0_1178_5623">
<rect width="169" height="107" fill="white" transform="translate(90 122)"/>
</clipPath>
</defs>
</svg>
