<svg width="21" height="21" viewBox="0 0 21 21" fill="none" xmlns="http://www.w3.org/2000/svg">
<g clip-path="url(#clip0_745_5714)">
<path d="M9.87177 4.82107L12.4837 2.2373C13.9138 0.704603 17.1386 0.178864 19.0211 2.31015C20.9035 4.44144 20.9763 7.20046 19.3128 8.82098C17.6492 10.4415 13.8843 14.2516 13.8843 14.2516C13.8843 14.2516 12.4396 15.5362 10.6449 15.5362C8.85023 15.5362 7.50747 14.5288 7.02604 13.8137C6.5446 13.0985 7.02604 12.6019 7.25947 12.4121C7.49291 12.2223 8.25188 11.8868 8.79157 12.3684C9.33167 12.85 9.81311 13.2297 10.5717 13.2297C11.3302 13.2297 12.2061 12.6748 12.9356 11.9305C13.665 11.1858 17.4809 7.38339 17.4809 7.38339C17.4809 7.38339 19.2391 5.71187 17.4736 4.07678C15.7081 2.44169 14.1319 3.88696 14.1319 3.88696L12.8186 5.21527C12.8186 5.21527 11.7097 4.66039 9.87096 4.82107H9.87177Z" fill="black"/>
<path d="M11.4507 16.6457L8.8388 19.2294C7.40866 20.7621 4.18384 21.2879 2.30139 19.1566C0.418936 17.0253 0.346114 14.2663 2.0097 12.6458C3.67328 11.0252 7.43819 7.21514 7.43819 7.21514C7.43819 7.21514 8.8829 5.93054 10.6776 5.93054C12.4722 5.93054 13.815 6.93791 14.2964 7.65306C14.7779 8.36821 14.2964 8.86481 14.063 9.05462C13.8296 9.24444 13.0706 9.57996 12.5309 9.09833C11.9908 8.61671 11.5094 8.23708 10.7508 8.23708C9.99223 8.23708 9.11634 8.79195 8.3869 9.53625C7.65746 10.2809 3.84158 14.0833 3.84158 14.0833C3.84158 14.0833 2.08333 15.7549 3.84886 17.39C5.6144 19.025 7.19059 17.5798 7.19059 17.5798L8.50382 16.2515C8.50382 16.2515 9.61274 16.8063 11.4515 16.6457H11.4507Z" fill="black"/>
</g>
<defs>
<clipPath id="clip0_745_5714">
<rect width="19.6778" height="19.6778" fill="white" transform="translate(0.822266 0.894409)"/>
</clipPath>
</defs>
</svg>
