<svg width="22" height="22" viewBox="0 0 22 22" fill="none" xmlns="http://www.w3.org/2000/svg">
<path d="M21.4662 10.7728C21.4662 4.82318 16.6608 0 10.7331 0C4.80543 0 0 4.82318 0 10.7728C0 15.8248 3.46551 20.0641 8.14043 21.2284V14.0649H5.92726V10.7728H8.14043V9.35421C8.14043 5.68759 9.79376 3.98808 13.3803 3.98808C14.0604 3.98808 15.2337 4.12209 15.7137 4.25567V7.23973C15.4604 7.21301 15.0204 7.19965 14.4738 7.19965C12.714 7.19965 12.034 7.86886 12.034 9.60844V10.7728H15.5398L14.9375 14.0649H12.034V21.4667C17.3486 20.8225 21.4667 16.2807 21.4667 10.7728H21.4662Z" fill="black"/>
</svg>
