<svg width="22" height="22" viewBox="0 0 22 22" fill="none" xmlns="http://www.w3.org/2000/svg">
<g clip-path="url(#clip0_745_5708)">
<path d="M9.12036 8.55884H9.62869C9.70425 8.55884 9.76564 8.62023 9.76564 8.69579V11.8231C9.76564 11.8986 9.70425 11.96 9.62869 11.96H9.12036C9.04479 11.96 8.9834 11.8986 8.9834 11.8231V8.69579C8.9834 8.62023 9.04479 8.55884 9.12036 8.55884Z" fill="black"/>
<path d="M13.0878 8.55884H12.5795C12.5039 8.55884 12.4425 8.62023 12.4425 8.69579V10.5531L11.0116 8.62109C11.0081 8.61594 11.0047 8.61165 11.0004 8.60692C11.0004 8.60692 11 8.60649 10.9995 8.60606C10.997 8.60306 10.9944 8.60005 10.9914 8.59748C10.9905 8.59662 10.9897 8.59576 10.9888 8.59533C10.9862 8.59318 10.9841 8.59104 10.9815 8.58889C10.9802 8.58803 10.9789 8.58717 10.9776 8.58632C10.9755 8.5846 10.9729 8.58288 10.9703 8.58116C10.9691 8.5803 10.9678 8.57945 10.9661 8.57859C10.9635 8.5773 10.9609 8.57558 10.9583 8.57429C10.957 8.57344 10.9553 8.57301 10.954 8.57215C10.9515 8.57086 10.9489 8.56957 10.9459 8.56871C10.9446 8.56828 10.9429 8.56742 10.9416 8.56699C10.939 8.56614 10.936 8.56528 10.9334 8.56442C10.9317 8.56399 10.93 8.56356 10.9287 8.56313C10.9261 8.56227 10.9231 8.56184 10.9205 8.56141C10.9184 8.56141 10.9167 8.56098 10.9145 8.56055C10.912 8.56055 10.9098 8.5597 10.9072 8.5597C10.9047 8.5597 10.9025 8.5597 10.8999 8.5597C10.8982 8.5597 10.8969 8.5597 10.8952 8.5597H10.3899C10.3143 8.5597 10.2529 8.62109 10.2529 8.69665V11.8239C10.2529 11.8995 10.3143 11.9609 10.3899 11.9609H10.8982C10.9738 11.9609 11.0352 11.8995 11.0352 11.8239V9.96705L12.4679 11.9016C12.4777 11.9158 12.4898 11.927 12.5031 11.936C12.5035 11.936 12.5039 11.9368 12.5048 11.9373C12.5074 11.939 12.5104 11.9407 12.5134 11.9424C12.5147 11.9433 12.5159 11.9437 12.5172 11.9446C12.5194 11.9458 12.5215 11.9467 12.5237 11.9476C12.5258 11.9484 12.528 11.9497 12.5305 11.9506C12.5318 11.951 12.5335 11.9519 12.5348 11.9523C12.5378 11.9536 12.5413 11.9544 12.5443 11.9553C12.5451 11.9553 12.5456 11.9553 12.5464 11.9557C12.558 11.9587 12.5696 11.9604 12.5821 11.9604H13.0874C13.163 11.9604 13.2243 11.8991 13.2243 11.8235V8.69622C13.2243 8.62066 13.163 8.55927 13.0874 8.55927L13.0878 8.55884Z" fill="black"/>
<path d="M8.41664 11.1778H7.04836V8.69579C7.04836 8.62066 6.98696 8.55884 6.9114 8.55884H6.40307C6.32751 8.55884 6.26611 8.62023 6.26611 8.69579V11.8205V11.8231C6.26611 11.8986 6.32751 11.96 6.40307 11.96H8.41621C8.49178 11.96 8.55317 11.8986 8.55317 11.8231V11.3147C8.55317 11.2396 8.49178 11.1778 8.41621 11.1778H8.41664Z" fill="black"/>
<path d="M11.0888 0C5.161 0 0.355469 4.80553 0.355469 10.7333C0.355469 16.6611 5.161 21.4667 11.0888 21.4667C17.0166 21.4667 21.8221 16.6611 21.8221 10.7333C21.8221 4.80553 17.0166 0 11.0888 0ZM16.7114 13.6859C15.2078 15.4161 11.8466 17.5237 11.0815 17.8461C10.3169 18.1681 10.4298 17.6409 10.4607 17.4597C10.4787 17.3519 10.5629 16.8462 10.5629 16.8462C10.5869 16.6633 10.6118 16.3795 10.5397 16.1983C10.4594 15.9987 10.1417 15.8952 9.90856 15.845C6.46531 15.3899 3.91593 12.9826 3.91593 10.1082C3.91593 6.90196 7.13078 4.29333 11.0815 4.29333C15.0322 4.29333 18.2471 6.90196 18.2471 10.1082C18.2471 11.3915 17.7495 12.5473 16.7114 13.6859Z" fill="black"/>
<path d="M15.863 8.55884H13.8498C13.7743 8.55884 13.7129 8.62024 13.7129 8.6958V8.6988V11.8205V11.8231C13.7129 11.8986 13.7743 11.96 13.8498 11.96H15.863C15.9386 11.96 15.9999 11.8986 15.9999 11.8231V11.3147C15.9999 11.2396 15.9386 11.1778 15.863 11.1778H14.4947V10.6501H15.863C15.9386 10.6501 15.9999 10.5887 15.9999 10.5132V10.0048C15.9999 9.9297 15.9386 9.86788 15.863 9.86788H14.4947V9.34023H15.863C15.9386 9.34023 15.9999 9.27883 15.9999 9.20327V8.69494C15.9999 8.61981 15.9386 8.55798 15.863 8.55798V8.55884Z" fill="black"/>
</g>
<defs>
<clipPath id="clip0_745_5708">
<rect width="21.4667" height="21.4667" fill="white" transform="translate(0.355469)"/>
</clipPath>
</defs>
</svg>
